<?xml version="1.0" encoding="UTF-8"?>
<svg width="31px" height="32px" viewBox="0 0 31 32" version="1.1" xmlns="http://www.w3.org/2000/svg" xmlns:xlink="http://www.w3.org/1999/xlink">
    <title>Happy Varied Type Icon</title>
    <g id="Happy-Varied-Type-Icon" stroke="none" stroke-width="1" fill="none" fill-rule="evenodd">
        <path d="M3.82883721,24.7711864 L5.02697674,21.3898305 L12.267907,21.3898305 L13.4660465,24.7711864 L17.3209302,24.7711864 L10.7832558,7 L6.53767442,7 L0,24.7711864 L3.82883721,24.7711864 Z M11.2781395,18.5423729 L6.01674419,18.5423729 L8.64744186,11.1186441 L11.2781395,18.5423729 Z M23.5348837,25 C24.6114729,25 25.5621705,24.7838983 26.3869767,24.3516949 C27.2117829,23.9194915 27.8586047,23.3728814 28.3274419,22.7118644 L28.3274419,22.7118644 L28.3274419,24.7711864 L32,24.7711864 L32,10.6864407 L28.3274419,10.6864407 L28.3274419,12.6949153 C27.8412403,12.0508475 27.1944186,11.5169492 26.3869767,11.0932203 C25.5795349,10.6694915 24.6375194,10.4576271 23.5609302,10.4576271 C22.328062,10.4576271 21.2124031,10.7542373 20.2139535,11.3474576 C19.2155039,11.940678 18.4254264,12.7881356 17.8437209,13.8898305 C17.2620155,14.9915254 16.9711628,16.2542373 16.9711628,17.6779661 C16.9711628,19.1186441 17.2620155,20.3940678 17.8437209,21.5042373 C18.4254264,22.6144068 19.2155039,23.4745763 20.2139535,24.0847458 C21.2124031,24.6949153 22.3193798,25 23.5348837,25 Z M24.4986047,21.8728814 C23.8387597,21.8728814 23.2179845,21.7033898 22.6362791,21.3644068 C22.0545736,21.0254237 21.5857364,20.5381356 21.2297674,19.9025424 C20.8737984,19.2669492 20.695814,18.5254237 20.695814,17.6779661 C20.695814,16.8305085 20.8737984,16.0974576 21.2297674,15.4788136 C21.5857364,14.8601695 22.0502326,14.3898305 22.6232558,14.0677966 C23.1962791,13.7457627 23.8213953,13.5847458 24.4986047,13.5847458 C25.175814,13.5847458 25.8096124,13.75 26.4,14.0805085 C26.9903876,14.4110169 27.4592248,14.8855932 27.8065116,15.5042373 C28.1537984,16.1228814 28.3274419,16.8644068 28.3274419,17.7288136 C28.3274419,18.5932203 28.1537984,19.3347458 27.8065116,19.9533898 C27.4592248,20.5720339 26.9903876,21.0466102 26.4,21.3771186 C25.8096124,21.7076271 25.175814,21.8728814 24.4986047,21.8728814 Z" id="Aa" fill="#FFFFFF" fill-rule="nonzero"></path>
    </g>
</svg>