<?xml version="1.0" encoding="UTF-8"?>
<svg width="31px" height="32px" viewBox="0 0 31 32" version="1.1" xmlns="http://www.w3.org/2000/svg" xmlns:xlink="http://www.w3.org/1999/xlink">
    <title>Happy Upload Icon</title>
    <g id="Happy-Upload-Icon" stroke="none" stroke-width="1" fill="none" fill-rule="evenodd">
        <path d="M11.6548536,30.7895351 L11.6548536,12.4832528 L4.88803287,19.2821196 C4.42098956,19.7513748 3.66204417,19.7513748 3.19500086,19.2821196 L0.350282486,16.4239293 C-0.116760829,15.9546742 -0.116760829,15.1921346 0.350282486,14.7228795 L14.653484,0.351941343 C15.1205273,-0.117313781 15.8794727,-0.117313781 16.346516,0.351941343 L30.6497175,14.7228795 C31.1167608,15.1921346 31.1167608,15.9546742 30.6497175,16.4239293 L27.8049991,19.2821196 C27.3379558,19.7513748 26.5790104,19.7513748 26.1119671,19.2821196 L18.8462592,11.9873354 L18.8462592,30.7948675 C18.8462592,31.4614231 18.3102209,32 17.6468071,32 L12.8489985,32 C12.190892,31.9946676 11.6548536,31.4507582 11.6548536,30.7895351 Z" id="Path" fill="#FFFFFF" fill-rule="nonzero"></path>
    </g>
</svg>