<?xml version="1.0" encoding="UTF-8"?>
<svg width="32px" height="21px" viewBox="0 0 32 21" version="1.1" xmlns="http://www.w3.org/2000/svg" xmlns:xlink="http://www.w3.org/1999/xlink">
    <title>Happy Focus Mode Icon</title>
    <g id="Happy-Focus-Mode-Icon" stroke="none" stroke-width="1" fill="none" fill-rule="evenodd">
        <path d="M15.1329359,-1.77635684e-15 L16.8544725,-1.77635684e-15 C16.9568687,0.0220224719 17.0592649,0.0566292135 17.164861,0.0629213483 C18.4096152,0.157303371 19.6159707,0.434157303 20.7807278,0.855730337 C24.9117755,2.35955056 28.2844512,4.9047191 31.0651487,8.22696629 C32.3291021,9.73707865 32.3003032,11.2723596 31.0459494,12.7982022 C29.321213,14.8997753 27.2732885,16.6458427 24.9661735,18.0993258 C23.0654435,19.2948315 21.0399182,20.2166292 18.8223999,20.6822472 C18.1728239,20.8175281 17.5104483,20.8961798 16.8544725,21 L15.1329359,21 C15.0305397,20.9779775 14.9249436,20.9433708 14.8193475,20.9370787 C13.747387,20.8489888 12.6978257,20.6319101 11.6802632,20.2921348 C7.29322488,18.8292135 3.77015473,16.1707865 0.848662414,12.691236 C0.378279751,12.131236 0.0742909554,11.48 0.0102933142,10.7438202 C-0.0761035013,9.68988764 0.391079279,8.8341573 1.0470551,8.05393258 C2.80379035,5.96808989 4.86771428,4.2188764 7.2004283,2.7811236 C9.14275671,1.58247191 11.2098805,0.673258427 13.475397,0.248539326 C14.0257767,0.144719101 14.5793563,0.0817977528 15.1329359,-1.77635684e-15 Z M9.32514999,10.501573 C9.32514999,14.0975281 12.3170397,17.0485393 15.9745049,17.0548539 C19.6415697,17.0642697 22.6590585,14.1006742 22.6590585,10.4952809 C22.6590585,6.89932584 19.660769,3.95146067 16.0033038,3.94515847 C12.3234395,3.9388764 9.32514999,6.88359551 9.32514999,10.501573 Z M17.248058,6.78921348 C15.9201069,7.88089888 15.6289176,9.04808989 16.4096889,10.1586517 C17.1968599,11.2786517 18.3808162,11.4076404 19.9647578,10.548764 C20.1279518,11.8889888 18.982394,13.5626966 17.491249,14.1541573 C15.808111,14.8211236 13.8625827,14.2831461 12.7874224,12.8579775 C11.6930627,11.4076404 11.7186618,9.44134831 12.85142,8.05707865 C13.9265804,6.74202247 15.8561093,6.18516854 17.248058,6.78921348 Z" id="Shape" fill="#FFFFFF" fill-rule="nonzero"></path>
    </g>
</svg>