<?xml version="1.0" encoding="UTF-8"?>
<svg width="32px" height="26px" viewBox="0 0 32 26" version="1.1" xmlns="http://www.w3.org/2000/svg" xmlns:xlink="http://www.w3.org/1999/xlink">
    <title>Happy Lists Icon</title>
    <g id="Happy-Lists-Icon" stroke="none" stroke-width="1" fill="none" fill-rule="evenodd">
        <path d="M31.472,0.441337993 C31.312,0.327758362 31.1264,0.288816775 30.944,0.24013979 L6.4384,0.24013979 C7.0688,0.814528208 7.472,1.64203694 7.472,2.56689965 C7.472,3.49176236 7.0688,4.31602596 6.4416,4.89365951 C14.5536,4.89041438 22.6656,4.88716925 30.7776,4.88716925 L30.8736,4.88716925 C31.136,4.89041438 31.3632,4.79955067 31.5648,4.63729406 C31.792,4.45556665 31.9136,4.2089366 32,3.93959061 L32,1.21367948 C31.9104,0.895656515 31.7472,0.629555667 31.472,0.441337993 Z M5.0624,2.56689965 C5.0624,3.98502247 3.9296,5.1337993 2.5312,5.1337993 C1.1328,5.1337993 0,3.98502247 0,2.56689965 C0,1.14877683 1.1328,0 2.5312,0 C3.9296,0 5.0624,1.14877683 5.0624,2.56689965 L5.0624,2.56689965 Z M30.944,7.20094858 L6.4384,7.20094858 C7.0688,7.77858213 7.472,8.60284573 7.472,9.52770844 C7.472,10.4525711 7.0688,11.2800799 6.4416,11.8544683 C14.5536,11.8512232 22.6656,11.8512232 30.7776,11.8512232 L30.8736,11.8512232 C31.136,11.8544683 31.3632,11.7603595 31.5648,11.5981028 C31.792,11.4163754 31.9136,11.1697454 32,10.9003994 L32,8.17448827 C31.9104,7.8564653 31.7472,7.59036445 31.472,7.40214678 C31.312,7.29181228 31.1264,7.24962556 30.944,7.20094858 Z M5.0624,9.52770844 C5.0624,10.9458313 3.9296,12.0978532 2.5312,12.0978532 C1.1328,12.0978532 0,10.9458313 0,9.52770844 C0,8.11283075 1.1328,6.96080879 2.5312,6.96080879 C3.9296,6.96080879 5.0624,8.11283075 5.0624,9.52770844 L5.0624,9.52770844 Z M30.944,14.1552671 L6.4384,14.1552671 C7.0688,14.7329006 7.472,15.5571643 7.472,16.482027 C7.472,17.4068897 7.0688,18.2343984 6.4416,18.8087868 C14.5536,18.8055417 22.6656,18.8055417 30.7776,18.8055417 L30.8736,18.8055417 C31.136,18.8087868 31.3632,18.714678 31.5648,18.5524214 C31.792,18.370694 31.9136,18.1240639 32,17.8579631 L32,15.1288068 C31.9104,14.8107838 31.7472,14.544683 31.472,14.3564653 C31.312,14.2461308 31.1264,14.2039441 30.944,14.1552671 Z M5.0624,16.482027 C5.0624,17.9001498 3.9296,19.0521717 2.5312,19.0521717 C1.1328,19.0521717 0,17.9001498 0,16.482027 C0,15.0671493 1.1328,13.9151273 2.5312,13.9151273 C3.9296,13.9151273 5.0624,15.0671493 5.0624,16.482027 L5.0624,16.482027 Z M30.944,21.1063405 L6.4384,21.1063405 C7.0688,21.6807289 7.472,22.5082376 7.472,23.4331003 C7.472,24.3579631 7.0688,25.1822267 6.4416,25.7598602 C14.5536,25.7566151 22.6656,25.7533699 30.7776,25.7533699 L30.8736,25.7533699 C31.136,25.7598602 31.3632,25.6657514 31.5648,25.5034948 C31.792,25.3217673 31.9136,25.0751373 32,24.8057913 L32,22.0798802 C31.9104,21.7618572 31.7472,21.4957564 31.472,21.3075387 C31.312,21.1939591 31.1264,21.1550175 30.944,21.1063405 Z M5.0624,23.4331003 C5.0624,24.8512232 3.9296,26 2.5312,26 C1.1328,26 0,24.8512232 0,23.4331003 C0,22.0149775 1.1328,20.8662007 2.5312,20.8662007 C3.9296,20.8662007 5.0624,22.0149775 5.0624,23.4331003 L5.0624,23.4331003 Z" id="Shape" fill="#FFFFFF" fill-rule="nonzero"></path>
    </g>
</svg>