<?xml version="1.0" encoding="UTF-8"?>
<svg width="28px" height="32px" viewBox="0 0 28 32" version="1.1" xmlns="http://www.w3.org/2000/svg" xmlns:xlink="http://www.w3.org/1999/xlink">
    <title>Happy Calendar View Icon</title>
    <g id="Happy-Calendar-View-Icon" stroke="none" stroke-width="1" fill="none" fill-rule="evenodd">
        <path d="M27.9948409,5.56674113 C27.9915848,3.97015502 27.0798864,3.1670626 25.4681337,3.20865703 C24.9211147,3.22145532 24.8006402,3.43262703 24.8136645,3.90936316 C24.8364569,4.71565514 24.8494812,5.5251467 24.8071523,6.33143869 C24.742031,7.63686381 23.9540631,8.44955493 22.6386124,8.55194122 C21.9418143,8.60633393 21.235248,8.60313436 20.541706,8.55514079 C19.1285734,8.45915365 18.3373493,7.61766638 18.3047887,6.22265326 C18.2885083,5.44515742 18.2787401,4.66766157 18.3080447,3.89016573 C18.3275811,3.3910326 18.1550096,3.2118566 17.6340391,3.21505617 C15.1985018,3.23745317 12.7629645,3.23745317 10.3306832,3.21505617 C9.77715199,3.20865703 9.66970181,3.44222574 9.68598214,3.91256273 C9.71203067,4.71885472 9.7087746,5.52834627 9.68923821,6.33463826 C9.65993361,7.55367495 8.94359911,8.38236393 7.71280618,8.5199455 C6.96065495,8.60633393 6.19222339,8.59993479 5.43356003,8.55514079 C4.04973201,8.4751515 3.27804438,7.66885952 3.22920339,6.29944297 C3.20315486,5.49315099 3.1998988,4.68365943 3.22920339,3.87736745 C3.24873979,3.3686356 3.0468637,3.22145532 2.53891741,3.2118566 C0.881579852,3.17666132 0.00244204945,3.99255202 0.00244204945,5.65632913 C-0.000814016484,13.6136631 -0.000814016484,21.5677975 0.00244204945,29.5251315 C0.00244204945,31.2401018 0.754593281,31.9920011 2.49658856,31.9952006 C10.1678799,32.0015998 17.8359152,32.0015998 25.5072065,31.9952006 C27.2622261,31.9952006 27.9948409,31.2592992 27.9948409,29.5283311 C28.001353,25.5512639 27.9948409,21.5709971 27.9948409,17.5939299 C27.998097,13.5816674 28.0046091,9.57260448 27.9948409,5.56674113 Z M3.1901306,11.2235833 C3.18682937,10.807639 3.36921423,10.6412613 3.7925028,10.6412613 C5.58333906,10.65086 7.37417533,10.65086 9.16175553,10.6444609 C9.54597131,10.6444609 9.69575034,10.8012399 9.69249427,11.1819889 C9.67947001,12.6121973 9.67621394,14.0456053 9.69575034,15.4758137 C9.70226247,15.9493502 9.4417772,16.0037429 9.06407355,16.0005434 C8.18493575,15.9909447 7.30579794,15.9973438 6.42340407,15.9973438 C5.54426627,15.9973438 4.6618724,15.9845455 3.7827346,16.0037429 C3.35618996,16.0133417 3.18361847,15.8533631 3.18682937,15.4310197 C3.20315486,14.0264078 3.1998988,12.6249956 3.1901306,11.2235833 Z M9.69900641,28.2133073 C9.70551854,28.670846 9.55248344,28.8532216 9.07709781,28.8468224 C7.3481268,28.8308246 5.61915579,28.8308246 3.89018478,28.8468224 C3.38549456,28.8532216 3.1803624,28.6804447 3.18687453,28.1749124 C3.20641093,26.8022963 3.20315486,25.4328798 3.1901306,24.0602636 C3.18687453,23.6411198 3.35618996,23.4747421 3.7827346,23.4843408 C4.6618724,23.5035382 5.54101021,23.4907399 6.42340407,23.4907399 C7.30254188,23.4907399 8.18493575,23.5067378 9.06407355,23.4843408 C9.52643491,23.4715425 9.7087746,23.6251219 9.70226247,24.0986585 C9.67621394,25.4712746 9.67947001,26.8438907 9.69900641,28.2133073 Z M8.9631355,22.438081 C8.11330229,22.4028857 7.26021302,22.4284822 6.40712374,22.4284822 C5.58659513,22.4284822 4.76281045,22.4028857 3.94228183,22.438081 C3.40828702,22.460478 3.1705942,22.3164972 3.18361847,21.743774 C3.21292306,20.399954 3.209667,19.0529345 3.18687453,17.7059149 C3.17710634,17.1875843 3.39200669,17.0436036 3.89018478,17.0500028 C5.59310726,17.0723998 7.29928581,17.0819985 9.0022083,17.0468032 C9.5948123,17.0340049 9.71203067,17.2707732 9.70226247,17.7859042 C9.67621394,19.100928 9.66644575,20.4191514 9.70551854,21.7341753 C9.7185428,22.303699 9.50364245,22.460478 8.9631355,22.438081 Z M11.3791364,10.6444609 C13.1146196,10.6540596 14.8501027,10.6572592 16.5855859,10.641217 C17.0544594,10.6380618 17.233543,10.807639 17.2270308,11.2715769 C17.2074945,12.6473926 17.2042384,14.0232083 17.2270308,15.3990239 C17.233543,15.8885584 17.0121305,16.0101421 16.5660495,16.0005434 C15.6836556,15.9813459 14.8012617,15.9941442 13.9188679,15.9941442 C13.0657786,15.9941442 12.2126893,15.9813459 11.3628561,16.0005434 C10.9330554,16.0101421 10.7735082,15.8501635 10.7767642,15.4246205 C10.7930446,14.0200087 10.7930446,12.6121973 10.7767642,11.2075855 C10.7702521,10.7660446 10.9688721,10.641217 11.3791364,10.6444609 Z M10.7735082,17.6803183 C10.766996,17.2259792 10.913519,17.0468032 11.3986728,17.0532023 C13.1308999,17.0755993 14.863127,17.0723998 16.5986101,17.0532023 C17.0805079,17.0468032 17.233543,17.2291788 17.2270308,17.6835179 C17.2107505,19.056134 17.2107505,20.4319497 17.2270308,21.8077654 C17.233543,22.2653041 17.0739957,22.4476797 16.5953541,22.4348814 C15.7129602,22.4092848 14.8338224,22.4284822 13.9514285,22.4284822 C13.1308999,22.4284822 12.3103713,22.4124844 11.4898427,22.4348814 C11.014457,22.4508792 10.7604839,22.3516925 10.7735082,21.8045658 C10.8028128,20.4319497 10.7930446,19.056134 10.7735082,17.6803183 Z M17.233543,28.1301184 C17.2465672,28.6804447 17.0414351,28.8596207 16.4911599,28.8532216 C14.8175421,28.827625 13.1439242,28.8340241 11.4670502,28.850022 C10.9688721,28.8564211 10.7572278,28.7124404 10.7702521,28.1877107 C10.7995567,26.8406912 10.7995567,25.4968712 10.7702521,24.1498516 C10.7604839,23.6379202 10.9460797,23.4651434 11.4540259,23.4843408 C12.3038592,23.5131369 13.1569484,23.4939395 14.0100377,23.4939395 C14.8305663,23.4939395 15.654351,23.5163365 16.4748796,23.4843408 C17.0088744,23.4651434 17.2433112,23.6123237 17.2302869,24.1818474 C17.1977263,25.4968712 17.2009823,26.8150946 17.233543,28.1301184 Z M18.2950205,11.277976 C18.2885083,10.8204373 18.4513116,10.6348622 18.9266973,10.6412613 C20.6589243,10.6572592 22.3878954,10.6572592 24.1201224,10.6412613 C24.6085323,10.6380618 24.839713,10.785242 24.8299448,11.3067722 C24.8071523,12.6793883 24.8136645,14.0520044 24.8266887,15.4246205 C24.8299448,15.8469639 24.6638854,16.0101421 24.2340847,16.0005434 C23.3223863,15.9845455 22.4106878,15.9941442 21.5022454,15.9941442 C20.6817168,15.9941442 19.8611882,15.9717472 19.0439156,16.0037429 C18.5131769,16.0229404 18.2787401,15.8757601 18.2950205,15.3062364 C18.3243251,13.965616 18.3145569,12.621796 18.2950205,11.277976 Z M24.8234703,28.2708996 C24.8266887,28.7028417 24.6183005,28.8436228 24.2112923,28.8436228 C22.420456,28.8372237 20.6263637,28.8372237 18.8355274,28.8436228 C18.4513116,28.8436228 18.2950205,28.6804447 18.2982268,28.3028953 C18.3080447,26.8694873 18.3113008,25.4392789 18.2982268,24.0058709 C18.2950205,23.5291348 18.5782982,23.4875404 18.9462337,23.4907399 C19.8253715,23.4971391 20.7077653,23.4939395 21.5869031,23.4939395 C22.4660409,23.4939395 23.3484348,23.5067378 24.2275726,23.4907399 C24.6541172,23.4811412 24.8266887,23.6411198 24.8201766,24.0666628 C24.8104084,25.4648755 24.8104084,26.8694873 24.8234703,28.2708996 Z M24.0712814,22.4348814 C23.2214482,22.4028857 22.371615,22.4252827 21.5217818,22.4252827 C20.642644,22.4252827 19.7602501,22.4092848 18.8811123,22.4284822 C18.4513116,22.438081 18.2885083,22.2749028 18.2950205,21.8525594 C18.3080447,20.4511471 18.3145569,19.0497349 18.2917644,17.6483226 C18.2852523,17.1587882 18.5066648,17.0468032 18.9527458,17.0500028 C20.6817168,17.0660006 22.4106878,17.0692002 24.1396588,17.0468032 C24.6541172,17.0404041 24.8364569,17.2131809 24.8266887,17.7155136 C24.8038963,19.056134 24.7973841,20.399954 24.8299448,21.7405744 C24.8462251,22.3228964 24.5955081,22.4540788 24.0712814,22.4348814 Z M6.57969524,7.46408695 C7.68350159,7.39049681 8.53984693,6.52661254 8.59520005,5.40036342 C8.62124858,4.83403929 8.59845612,4.26451558 8.59845612,3.69819145 C8.59845612,3.16066346 8.61799251,2.62313547 8.59520005,2.08560748 C8.543103,0.946560071 7.70629405,0.0890749443 6.59923163,0.00588608873 C5.50193741,-0.0741031955 4.5088373,0.668197362 4.35905827,1.8040452 C4.18974284,3.0774746 4.19625497,4.37330101 4.35580221,5.64673041 C4.49581304,6.78257825 5.48565708,7.53447752 6.57969524,7.46408695 Z M21.4924772,7.46728652 C22.6776852,7.51208052 23.6349686,6.60340225 23.7196263,5.32037413 C23.752187,4.81484186 23.7261385,4.30611001 23.7261385,3.79737816 L23.7228824,3.79737816 C23.7228824,3.23105403 23.7586991,2.65833075 23.7163703,2.09520619 C23.6219443,0.866570787 22.6809413,-0.0133113395 21.5282939,0.00268651736 C20.3723905,0.0186843742 19.4444118,0.9209635 19.3988268,2.14959891 C19.359754,3.19265917 19.3630101,4.24211858 19.3988268,5.28517885 C19.4378996,6.52661254 20.3235496,7.42249252 21.4924772,7.46728652 Z" id="Shape" fill="#FFFFFF" fill-rule="nonzero"></path>
    </g>
</svg>