<?xml version="1.0" encoding="UTF-8"?>
<svg width="64px" height="64px" viewBox="0 0 64 64" version="1.1" xmlns="http://www.w3.org/2000/svg" xmlns:xlink="http://www.w3.org/1999/xlink">
    <title>Instagram Icon Dark</title>
    <g id="Instagram-Icon-Dark" stroke="none" stroke-width="1" fill="none" fill-rule="evenodd">
        <path d="M32,15.382002 C22.8368049,15.382002 15.382002,22.8368049 15.382002,32 C15.382002,41.1631951 22.8368049,48.6115268 32,48.6115268 C41.1631951,48.6115268 48.611531,41.156724 48.611531,32 C48.617998,22.8368049 41.1631951,15.382002 32,15.382002 Z M32,42.2762386 C26.3312437,42.2762386 21.7237614,37.6687563 21.7237614,32 C21.7237614,26.3312437 26.3312437,21.7237614 32,21.7237614 C37.6687563,21.7237614 42.2762386,26.3312437 42.2762386,32 C42.2762386,37.6687563 37.6687563,42.2762386 32,42.2762386 Z M45.5830131,0 L18.4169869,0 C8.26370071,0 0,8.26370071 0,18.4169869 L0,45.5830131 C0,55.7362993 8.26370071,64 18.4169869,64 L45.5830131,64 C55.7362993,64 64,55.7362993 64,45.5830131 L64,18.4169869 C64,8.26370071 55.7427705,0 45.5830131,0 Z M57.6647118,45.5830131 C57.6647118,52.2418605 52.2418605,57.6582406 45.5830131,57.6582406 L18.4169869,57.6582406 C11.7581395,57.6582406 6.34175935,52.2418605 6.34175935,45.5830131 L6.34175935,18.4169869 C6.34175935,11.7581395 11.7581395,6.34175935 18.4169869,6.34175935 L45.5830131,6.34175935 C52.2418605,6.34175935 57.6582406,11.7581395 57.6582406,18.4169869 L57.6582406,45.5830131 L57.6647118,45.5830131 Z M48.8444894,10.5803842 C46.4501517,10.5803842 44.4958544,12.5282103 44.4958544,14.9290192 C44.4958544,17.3233569 46.4436805,19.2776542 48.8444894,19.2776542 C51.2388271,19.2776542 53.1931244,17.3298281 53.1931244,14.9290192 C53.1931244,12.5282103 51.2388271,10.5803842 48.8444894,10.5803842 Z" id="Shape" fill="#1B1A1A" fill-rule="nonzero"></path>
    </g>
</svg>