<?xml version="1.0" encoding="UTF-8"?>
<svg width="32px" height="32px" viewBox="0 0 32 32" version="1.1" xmlns="http://www.w3.org/2000/svg" xmlns:xlink="http://www.w3.org/1999/xlink">
    <title>Sun Icon</title>
    <g id="Sun-Icon" stroke="none" stroke-width="1" fill="none" fill-rule="evenodd">
        <path d="M16.0271564,7.24854272 C11.2579785,7.2375559 7.39582212,11.080194 7.388497,15.8366972 C7.38119274,20.5932005 11.221405,24.4688698 15.9466949,24.483574 C20.7268448,24.4945608 24.5926586,20.6482526 24.5999732,15.8733986 C24.5999732,11.1132252 20.770733,7.25590661 16.0271564,7.24854272 Z M7.46531167,20.762027 C7.12883593,20.2041655 6.42662568,20.0133182 5.83047844,20.32161 C5.66224056,20.4096934 5.50131738,20.5087872 5.33673685,20.6042109 C4.42240059,21.1327113 3.50440698,21.6538714 2.59738541,22.1933822 C2.07804241,22.501674 1.87323109,23.0668758 2.04146896,23.6210672 C2.20239214,24.1458974 2.677847,24.4945608 3.26302221,24.4908907 C3.42760274,24.5055712 3.61412733,24.4578594 3.78236521,24.3624357 C4.89054076,23.7275013 6.006031,23.1035772 7.09957717,22.4392816 C7.67743769,22.086948 7.8164168,21.3419093 7.46531167,20.762027 Z M24.4134487,10.6984993 C24.5670571,11.1976385 25.0571414,11.5646526 25.5801417,11.5683228 C25.773981,11.575663 25.964163,11.5352915 26.1287435,11.443538 C27.2478911,10.8049334 28.370696,10.173669 29.4715569,9.51304358 C30.0311307,9.17539057 30.1810818,8.45237271 29.8665501,7.89084107 C29.5483611,7.32563929 28.8607802,7.06138911 28.2865771,7.37335113 C27.1271987,8.00461546 25.9897644,8.66891105 24.8596447,9.34788721 C24.417106,9.61947768 24.2598402,10.1956899 24.4134487,10.6984993 Z M16.2575692,6.15853433 C16.9451501,6.15486418 17.4791224,5.60801311 17.4827798,4.8886654 C17.4864371,4.28676221 17.4827798,3.68118887 17.4827798,3.07928568 L17.4827798,1.23687469 C17.4681504,0.539547826 16.9378354,0.00370717967 16.2612265,1.84252553e-05 C15.5699883,-0.00363310315 15.0213866,0.535877684 15.0177292,1.24788512 C15.0104145,2.46637207 15.0104145,3.68485901 15.0177292,4.90334596 C15.0213866,5.61168326 15.5699883,6.15853433 16.2575692,6.15853433 Z M16.2612265,25.837814 C15.5699883,25.8341624 15.0213866,26.3736732 15.0177292,27.0856807 C15.0104145,28.3041676 15.0104145,29.5226545 15.0177292,30.7411415 C15.0213866,31.4531489 15.566331,32 16.2539118,32 C16.9414927,31.9963299 17.4754651,31.4494788 17.4791224,30.7301311 C17.4827798,30.1282279 17.4791224,29.5226545 17.4791224,28.9170812 L17.4791224,27.0746702 C17.4681504,26.3810135 16.9378354,25.8415027 16.2612265,25.837814 L16.2612265,25.837814 Z M4.90517014,17.1065662 C5.6000657,17.102896 6.12306604,16.6074269 6.1523248,15.9321209 C6.18158356,15.2531447 5.68052729,14.662252 4.98197438,14.6475714 C3.71287565,14.6218804 2.44377692,14.6218804 1.17833553,14.6475714 C0.498069348,14.662252 -0.0212736497,15.2568149 0.000670420635,15.9027598 C0.0152998008,16.5854061 0.560244214,17.102896 1.25879712,17.1065662 C1.87323109,17.1102363 2.48400771,17.1065662 3.09844168,17.1065662 C3.70190361,17.1065662 4.3017082,17.1102363 4.90517014,17.1065662 Z M30.8247745,14.6475714 C29.5556758,14.6218804 28.2865771,14.6218804 27.0211357,14.6475714 C26.3408695,14.662252 25.8215265,15.2568149 25.8434706,15.9027598 C25.8617573,16.5817359 26.4067017,17.102896 27.1052546,17.1065662 C27.7196886,17.1102363 28.3304652,17.1065662 28.9448992,17.1065662 C29.5483611,17.1065662 30.1481657,17.1102363 30.7516276,17.1065662 C31.4465232,17.102896 31.9695235,16.6074269 31.9987823,15.9321209 C32.0280411,15.2531447 31.5269848,14.662252 30.8247745,14.6475714 L30.8247745,14.6475714 Z M21.6667825,7.75504584 C22.0983492,7.74770556 22.4640837,7.58621933 22.6835244,7.21553505 C23.3418466,6.10715235 23.9965113,4.99142936 24.61826,3.86469594 C24.9327916,3.29582403 24.6950642,2.58748673 24.1391478,2.26451429 C23.579574,1.9378717 22.8517623,2.06632665 22.5152866,2.62051801 C21.8386777,3.73257085 21.1803556,4.85563412 20.5659217,6.00071825 C20.1380123,6.80080907 20.7634183,7.7513757 21.6667825,7.75504584 Z M29.39841,22.1933822 C28.3450946,21.5731283 27.2844645,20.9565445 26.2201771,20.3583114 C25.5874564,20.0023077 24.8633021,20.2041655 24.5195117,20.8023986 C24.1647492,21.4189823 24.3695605,22.1309897 25.0278826,22.5126845 C26.0482819,23.1072474 27.0723385,23.6981401 28.0963951,24.2853628 C28.3085211,24.4064774 28.5316192,24.5055712 28.7693466,24.4872205 C29.3325777,24.4872205 29.8190046,24.1238765 29.9689558,23.6100567 C30.129879,23.0595355 29.917753,22.501674 29.39841,22.1933822 Z M9.38907517,6.88889247 C9.6268026,7.29260802 9.98522242,7.50547622 10.4606773,7.50185275 C11.4079296,7.49813594 11.9931049,6.51820818 11.528622,5.67407566 C10.9288174,4.59138394 10.3070688,3.51970265 9.67434809,2.45903178 C9.30861358,1.84611817 8.58811661,1.67362152 7.99562671,2.01861481 C7.40679415,2.36727825 7.20198283,3.08295582 7.54943061,3.70320972 C8.15289254,4.77122087 8.77098386,5.83189174 9.38907517,6.88889247 L9.38907517,6.88889247 Z M2.61932948,9.60112697 C3.66533016,10.2140406 4.71864554,10.8159438 5.76830357,11.4251873 C5.9658002,11.5389616 6.17426887,11.5976839 6.33519205,11.5903436 C6.95328337,11.5866735 7.43605291,11.2269996 7.58600406,10.7095097 C7.73961255,10.1663287 7.53845858,9.60479711 7.0374023,9.3111858 C5.97677224,8.68359162 4.90882748,8.06333772 3.83356804,7.45776439 C3.20450469,7.10176067 2.46937833,7.31095873 2.13290259,7.90919178 C1.78545481,8.52577554 1.97929409,9.22677255 2.61932948,9.60112697 Z M11.2360344,24.656047 C10.6179431,24.2890329 9.8864741,24.4945608 9.49879552,25.1588564 C8.90264828,26.1828259 8.31381573,27.2104655 7.72132583,28.2344349 C7.60429079,28.4399628 7.51651451,28.652831 7.53114389,28.8767097 C7.52748654,29.456592 7.87859167,29.9337104 8.40159201,30.0878563 C8.95750846,30.2530127 9.5134249,30.0474848 9.82064189,29.5299948 C10.4350759,28.4913448 11.0312231,27.4453545 11.6310277,26.3993642 C12.0040769,25.746079 11.835839,25.0120508 11.2360344,24.656047 Z M22.6286643,24.8946062 C22.2373283,24.2266405 21.5095167,24.0211126 20.8950827,24.3844566 C20.2952781,24.7404603 20.1233829,25.4744886 20.4964321,26.1277737 C20.792677,26.652604 21.099894,27.1700939 21.4034537,27.6949241 C21.7106707,28.2270946 22.0032583,28.7629353 22.3251046,29.2877655 C22.6323216,29.7905749 23.2138395,29.9924326 23.7587839,29.819936 C24.2598402,29.6621199 24.5999732,29.1813314 24.5999732,28.5867685 C24.6146026,28.3959211 24.5304837,28.1793828 24.4134487,27.9738549 C23.8173014,26.9462153 23.2284689,25.9185757 22.6286643,24.8946062 Z" id="Shape" fill="#FFFFFF" fill-rule="nonzero"></path>
    </g>
</svg>