<?xml version="1.0" encoding="UTF-8"?>
<svg width="64px" height="64px" viewBox="0 0 64 64" version="1.1" xmlns="http://www.w3.org/2000/svg" xmlns:xlink="http://www.w3.org/1999/xlink">
    <title>Twitter Icon Dark</title>
    <g id="Twitter-Icon-Dark" stroke="none" stroke-width="1" fill="none" fill-rule="evenodd">
        <path d="M64,12.1507736 C61.6450691,13.1966245 59.1146155,13.8987342 56.4598332,14.2205345 C59.1731231,12.5969058 61.2501428,10.0225035 62.2301451,6.9580872 C59.692378,8.46469761 56.8766998,9.55443038 53.8928123,10.1468354 C51.5013141,7.59437412 48.085933,6 44.3121929,6 C37.0572506,6 31.1772369,11.8728551 31.1772369,19.1279887 C31.1772369,20.1592124 31.2942521,21.1611814 31.5136556,22.1192686 C20.6019883,21.5707454 10.9262941,16.3488045 4.45389098,8.39887482 C3.3276197,10.3369902 2.67672266,12.5969058 2.67672266,15.0030942 C2.67672266,19.5594937 4.99508628,23.5746835 8.51285567,25.9296765 C6.36270141,25.8638537 4.33687579,25.2714487 2.56702091,24.2841069 L2.56702091,24.4523207 C2.56702091,30.8151899 7.09404639,36.1175809 13.0983888,37.3243319 C12.0013713,37.6241913 10.8385327,37.7850914 9.63912696,37.7850914 C8.79076677,37.7850914 7.97166038,37.7046414 7.17449434,37.5510549 C8.84196092,42.7656821 13.6907782,46.5614627 19.4318364,46.6711674 C14.9413781,50.1890295 9.28808136,52.288045 3.13015655,52.288045 C2.06970632,52.288045 1.03119643,52.2295359 0,52.1052039 C5.81419266,55.8278481 12.7107759,58 20.1266141,58 C44.2756256,58 57.4837161,37.9971871 57.4837161,20.6492264 C57.4837161,20.0787623 57.4690892,19.5156118 57.4471489,18.9524613 C60.0141698,17.0947961 62.244772,14.783685 64,12.1507736 Z" id="Path" fill="#1B1A1A" fill-rule="nonzero"></path>
    </g>
</svg>