<?xml version="1.0" encoding="UTF-8"?>
<svg width="61px" height="64px" viewBox="0 0 61 64" version="1.1" xmlns="http://www.w3.org/2000/svg" xmlns:xlink="http://www.w3.org/1999/xlink">
    <title>Happy Vertical Logotype</title>
    <defs>
        <linearGradient x1="-2.6075236%" y1="-3.60405459%" x2="100%" y2="96.9659083%" id="linearGradient-1">
            <stop stop-color="#D140F8" offset="0%"></stop>
            <stop stop-color="#788CE9" offset="36.5080911%"></stop>
            <stop stop-color="#37C2DE" offset="68.3665075%"></stop>
            <stop stop-color="#1ECCAE" offset="100%"></stop>
        </linearGradient>
    </defs>
    <g id="Happy-Vertical-Logotype" stroke="none" stroke-width="1" fill="none" fill-rule="evenodd">
        <g id="Group-2">
            <g id="Group" transform="translate(11.893351, -0.000000)">
                <path d="M10.8356153,0 L27.2955822,0 C31.06358,0 32.4299479,0.391481937 33.8071197,1.12685887 C35.1842914,1.86287029 36.2659464,2.94214221 37.002514,4.31708768 C37.7390817,5.69203315 38.1311975,7.05619225 38.1311975,10.8180989 L38.1311975,27.2514574 C38.1311975,31.013364 37.7390817,32.3768886 37.002514,33.7524686 C36.2659464,35.127414 35.1842914,36.206686 33.8071197,36.9426974 C32.4299479,37.6780743 31.06358,38.0695563 27.2955822,38.0695563 L10.8356153,38.0695563 C7.06761745,38.0695563 5.70124954,37.6780743 4.3240778,36.9426974 C2.94690605,36.206686 1.8658866,35.127414 1.12931897,33.7524686 C0.392115814,32.3768886 -6.35975455e-15,31.013364 -6.35975455e-15,27.2514574 L-6.35975455e-15,10.8180989 C-6.35975455e-15,7.05619225 0.392115814,5.69203315 1.12931897,4.31708768 C1.8658866,2.94214221 2.94690605,1.86287029 4.3240778,1.12685887 C5.70124954,0.391481937 7.06761745,0 10.8356153,0" id="Fill-1" fill="url(#linearGradient-1)"></path>
                <path d="M14.5333246,10.1518817 L14.5333246,10.3580918 L14.3216965,10.5687433 C13.2769017,11.6346909 12.4736044,12.8954277 11.9111693,14.3515882 C11.3112384,15.9048261 11.011273,17.5056509 11.011273,19.1540627 C11.011273,20.7599635 11.2953504,22.3100289 11.8641408,23.805528 C12.4329311,25.3003926 13.2444901,26.5972955 14.2988177,27.6956022 L14.2988177,27.9176746 L12.0910214,27.9176746 L11.9041785,27.7279613 C10.9814036,26.765436 10.2581819,25.5599001 9.73514893,24.1145259 C9.17652688,22.5714399 8.89753362,20.9179522 8.89753362,19.1540627 C8.89753362,17.3470278 9.1898728,15.6484911 9.77391564,14.0584526 C10.358594,12.4684142 11.2095552,11.1664353 12.3261638,10.1518817 L14.5333246,10.1518817 Z M25.8055421,10.1518817 L26.0120861,10.3454019 C27.027647,11.3301344 27.8093365,12.5680295 28.3571547,14.0584526 C28.9418331,15.6484911 29.2341723,17.3470278 29.2341723,19.1540627 C29.2341723,20.9179522 28.9545435,22.5714399 28.396557,24.1145259 C27.8379349,25.6569774 27.0524323,26.9246937 26.040049,27.9176746 L23.8328882,27.9176746 L23.8328882,27.6956022 L24.0400677,27.4735298 C24.9939831,26.4234445 25.7362704,25.2007773 26.2669296,23.805528 C26.8363555,22.3100289 27.1204329,20.7599635 27.1204329,19.1540627 C27.1204329,17.5056509 26.8204675,15.9048261 26.2205366,14.3515882 C25.6199703,12.7983503 24.7461303,11.4671848 23.5983813,10.3580918 L23.5983813,10.1518817 L25.8055421,10.1518817 Z M16.7252329,13.7335924 L16.7252329,18.2816354 L21.4058374,18.2816354 L21.4058374,13.7335924 L23.5983813,13.7335924 L23.5983813,24.7953365 L21.4058374,24.7953365 L21.4058374,20.0886703 L16.7252329,20.0886703 L16.7252329,24.7953365 L14.5333246,24.7953365 L14.5333246,13.7335924 L16.7252329,13.7335924 Z" id="Fill-4" fill="#FFFFFF" opacity="0.9"></path>
            </g>
            <path d="M31.7368293,50.773697 C32.4922102,50.773697 33.1751886,50.9602424 33.7874746,51.3333333 C34.3991906,51.7064242 34.8837746,52.2372727 35.2400864,52.9247273 C35.5963981,53.6121818 35.7742689,54.4090303 35.7742689,55.3158485 C35.7742689,56.2215152 35.5963981,57.0241212 35.2400864,57.7225152 C34.8837746,58.4214848 34.3991906,58.9621212 33.7874746,59.3461515 C33.1751886,59.7296061 32.4922102,59.9219091 31.7368293,59.9219091 C31.0874868,59.9219091 30.5156777,59.7889091 30.020832,59.5217576 C29.5818559,59.2851212 29.2152824,58.9932121 28.9222516,58.6466061 L28.8162132,58.5141818 L28.8162132,64 L26.5819961,64 L26.5819961,50.9176364 L28.8162132,50.9176364 L28.8162132,52.1969697 L28.9159805,52.0645455 C29.1930485,51.7173636 29.5562015,51.4231515 30.0054393,51.1813333 C30.5111169,50.9095758 31.0874868,50.773697 31.7368293,50.773697 L31.7368293,50.773697 Z M42.5567342,50.773697 C43.3121151,50.773697 43.9956635,50.9602424 44.6073795,51.3333333 C45.2190955,51.7064242 45.7031094,52.2372727 46.0594211,52.9247273 C46.4157329,53.6121818 46.5941738,54.4090303 46.5941738,55.3158485 C46.5941738,56.2215152 46.4157329,57.0241212 46.0594211,57.7225152 C45.7031094,58.4214848 45.2190955,58.9621212 44.6073795,59.3461515 C43.9956635,59.7296061 43.3121151,59.9219091 42.5567342,59.9219091 C41.9079618,59.9219091 41.3361527,59.7889091 40.8413069,59.5217576 C40.4011907,59.2851212 40.0351872,58.9932121 39.7427266,58.6466061 L39.6361181,58.5141818 L39.6361181,64 L37.4024711,64 L37.4024711,50.9176364 L39.6361181,50.9176364 L39.6361181,52.1969697 L39.7358854,52.0645455 C40.0129534,51.7173636 40.3755362,51.4231515 40.8247741,51.1813333 C41.3304517,50.9095758 41.9079618,50.773697 42.5567342,50.773697 L42.5567342,50.773697 Z M54.0265517,50.9176364 L56.3086571,57.1070303 L58.622118,50.9176364 L61,50.9176364 L55.5264816,63.9683333 L53.1485995,63.9683333 L55.0635613,59.554 L51.5209675,50.9176364 L54.0265517,50.9176364 Z M16.6537257,45 L16.6537257,45.2078485 L16.4376583,45.420303 C15.3732839,46.4963939 14.5540519,47.7688182 13.9805325,49.2381515 C13.3688165,50.8053636 13.0626735,52.4209394 13.0626735,54.084303 C13.0626735,55.7050606 13.3528538,57.2699697 13.9332143,58.7784545 C14.5124347,60.2869394 15.339648,61.5956364 16.4142842,62.7045455 L16.4142842,62.9285152 L14.1641043,62.9285152 L13.9839531,62.748303 C13.0387293,61.774697 12.2976009,60.5552424 11.7622782,59.0899394 C11.1933196,57.5336667 10.9088403,55.8645455 10.9088403,54.084303 C10.9088403,52.2608788 11.2064318,50.5468485 11.8021851,48.9422121 C12.3979383,47.3375758 13.2650586,46.023697 14.4035458,45 L16.6537257,45 Z M47.3786297,45 L47.576454,45.1836667 C48.6174544,46.1791515 49.4190133,47.432 49.9799905,48.9422121 C50.5757437,50.5468485 50.8733353,52.2608788 50.8733353,54.084303 C50.8733353,55.8645455 50.5882859,57.5336667 50.0193273,59.0899394 C49.4503687,60.6467879 48.64995,61.926697 47.6175011,62.9285152 L45.3673212,62.9285152 L45.3673212,62.7045455 L45.5662857,62.4943939 C46.5451453,61.4309697 47.3056571,60.1925152 47.8495313,58.7784545 C48.4287517,57.2699697 48.718932,55.7050606 48.718932,54.084303 C48.718932,52.4209394 48.413359,50.8053636 47.801643,49.2381515 C47.1893569,47.6709394 46.2988626,46.327697 45.1278797,45.2078485 L45.1278797,45 L47.3786297,45 Z M19.2254414,50.773697 C19.8850457,50.773697 20.4619856,50.906697 20.9568314,51.1732727 C21.3963775,51.4104848 21.7583903,51.7018182 22.0428696,52.0484242 L22.1454873,52.1808485 L22.1454873,50.9176364 L24.3956672,50.9176364 L24.3956672,59.7779697 L22.1454873,59.7779697 L22.1454873,58.4825152 L22.0457201,58.6183939 C21.7692221,58.9736364 21.4060692,59.2718788 20.9568314,59.513697 C20.4511537,59.7860303 19.8690829,59.9219091 19.2089085,59.9219091 C18.4649296,59.9219091 17.7859419,59.7296061 17.174796,59.3461515 C16.56308,58.9621212 16.0784961,58.4214848 15.7221843,57.7225152 C15.3658726,57.0241212 15.1880018,56.2215152 15.1880018,55.3158485 C15.1880018,54.4199697 15.3658726,53.626 15.7221843,52.9327879 C16.0784961,52.2395758 16.56308,51.7064242 17.174796,51.3333333 C17.7859419,50.9602424 18.4700605,50.773697 19.2254414,50.773697 L19.2254414,50.773697 Z M2.23421714,48.6146061 L2.23421714,53.2045455 L7.00537388,53.2045455 L7.00537388,48.6146061 L9.23959102,48.6146061 L9.23959102,59.7779697 L7.00537388,59.7779697 L7.00537388,55.0279697 L2.23421714,55.0279697 L2.23421714,59.7779697 L0,59.7779697 L0,48.6146061 L2.23421714,48.6146061 Z M19.8001009,52.7410606 C19.385069,52.7410606 19.0019626,52.8418182 18.6507818,53.0444848 C18.2996009,53.2471515 18.0151216,53.5430909 17.7967738,53.932303 C17.5789961,54.3215152 17.4701072,54.7821212 17.4701072,55.3158485 C17.4701072,55.849 17.5789961,56.3153636 17.7967738,56.7149394 C18.0151216,57.1150909 18.3024514,57.4213939 18.6587632,57.635 C19.0150749,57.8480303 19.3959009,57.9545455 19.8001009,57.9545455 C20.2145628,57.9545455 20.6033701,57.8509091 20.9642427,57.6424848 C21.3262554,57.4346364 21.6135852,57.1363939 21.826232,56.7471818 C22.0388789,56.3579697 22.1454873,55.8916061 22.1454873,55.3475152 C22.1454873,54.804 22.0388789,54.3370606 21.826232,53.9484242 C21.6135852,53.5592121 21.3262554,53.2603939 20.9642427,53.0525455 C20.6033701,52.844697 20.2145628,52.7410606 19.8001009,52.7410606 L19.8001009,52.7410606 Z M31.146207,52.7410606 C30.7420069,52.7410606 30.361751,52.844697 30.0054393,53.0525455 C29.6491276,53.2603939 29.3617978,53.5615152 29.1434499,53.9564848 C28.9251021,54.3508788 28.8162132,54.8143636 28.8162132,55.3475152 C28.8162132,55.8812424 28.9251021,56.3447273 29.1434499,56.7391212 C29.3617978,57.1335152 29.6491276,57.4346364 30.0054393,57.6424848 C30.361751,57.8509091 30.7420069,57.9545455 31.146207,57.9545455 C31.5612389,57.9545455 31.9466257,57.8480303 32.3029374,57.635 C32.6598193,57.4213939 32.947149,57.1173939 33.1649268,56.723 C33.3832746,56.3286061 33.4921635,55.8593636 33.4921635,55.3158485 C33.4921635,54.7821212 33.3832746,54.3215152 33.1649268,53.932303 C32.947149,53.5430909 32.6598193,53.2471515 32.3029374,53.0444848 C31.9466257,52.8418182 31.5612389,52.7410606 31.146207,52.7410606 L31.146207,52.7410606 Z M41.9661118,52.7410606 C41.5619118,52.7410606 41.1810858,52.844697 40.8247741,53.0525455 C40.4684623,53.2603939 40.1817026,53.5615152 39.9633548,53.9564848 C39.7455771,54.3508788 39.6361181,54.8143636 39.6361181,55.3475152 C39.6361181,55.8812424 39.7455771,56.3447273 39.9633548,56.7391212 C40.1817026,57.1335152 40.4684623,57.4346364 40.8247741,57.6424848 C41.1810858,57.8509091 41.5619118,57.9545455 41.9661118,57.9545455 C42.3811437,57.9545455 42.7671006,57.8480303 43.1234124,57.635 C43.4797241,57.4213939 43.7670539,57.1173939 43.9848316,56.723 C44.2031795,56.3286061 44.3126384,55.8593636 44.3126384,55.3158485 C44.3126384,54.7821212 44.2031795,54.3215152 43.9848316,53.932303 C43.7670539,53.5430909 43.4797241,53.2471515 43.1234124,53.0444848 C42.7671006,52.8418182 42.3811437,52.7410606 41.9661118,52.7410606 L41.9661118,52.7410606 Z" id="Fill-6" fill="#222222"></path>
        </g>
    </g>
</svg>