<?xml version="1.0" encoding="UTF-8"?>
<svg width="192px" height="64px" viewBox="0 0 192 64" version="1.1" xmlns="http://www.w3.org/2000/svg" xmlns:xlink="http://www.w3.org/1999/xlink">
    <title>Happy Horizontal Logotype</title>
    <defs>
        <linearGradient x1="-2.44825156%" y1="-3.77778371%" x2="99.8486224%" y2="97.1181234%" id="linearGradient-1">
            <stop stop-color="#D140F8" offset="0%"></stop>
            <stop stop-color="#788CE9" offset="36.5080911%"></stop>
            <stop stop-color="#37C2DE" offset="68.3665075%"></stop>
            <stop stop-color="#1ECCAE" offset="100%"></stop>
        </linearGradient>
    </defs>
    <g id="Happy-Horizontal-Logotype" stroke="none" stroke-width="1" fill="none" fill-rule="evenodd">
        <g id="Group">
            <path d="M18.1591153,0 L45.7439296,0 C52.0586155,0 54.3484746,0.658133333 56.6564396,1.8944 C58.9644046,3.13173333 60.7771209,4.94613333 62.0115148,7.2576 C63.2459086,9.56906667 63.9030449,11.8624 63.9030449,18.1866667 L63.9030449,45.8133333 C63.9030449,52.1376 63.2459086,54.4298667 62.0115148,56.7424 C60.7771209,59.0538667 58.9644046,60.8682667 56.6564396,62.1056 C54.3484746,63.3418667 52.0586155,64 45.7439296,64 L18.1591153,64 C11.8444294,64 9.55457026,63.3418667 7.24660529,62.1056 C4.93864032,60.8682667 3.126989,59.0538667 1.89259518,56.7424 C0.657136312,54.4298667 -3.78382036e-15,52.1376 -3.78382036e-15,45.8133333 L-3.78382036e-15,18.1866667 C-3.78382036e-15,11.8624 0.657136312,9.56906667 1.89259518,7.2576 C3.126989,4.94613333 4.93864032,3.13173333 7.24660529,1.8944 C9.55457026,0.658133333 11.8444294,0 18.1591153,0" id="Fill-1" fill="url(#linearGradient-1)"></path>
            <path d="M24.3560065,17.0666667 L24.3560065,17.4133333 L24.0013446,17.7674667 C22.2504012,19.5594667 20.9041771,21.6789333 19.9616071,24.1269333 C18.9561992,26.7381333 18.4534953,29.4293333 18.4534953,32.2005333 C18.4534953,34.9002667 18.929573,37.5061333 19.8827934,40.0202667 C20.8360138,42.5333333 22.1960836,44.7136 23.9630028,46.56 L23.9630028,46.9333333 L20.2630165,46.9333333 L19.9498916,46.6144 C18.4034379,44.9962667 17.1914101,42.9696 16.3148734,40.5397333 C15.3786938,37.9456 14.9111365,35.1658667 14.9111365,32.2005333 C14.9111365,29.1626667 15.4010598,26.3072 16.3798415,23.6341333 C17.3596882,20.9610667 18.7857911,18.7722667 20.6570853,17.0666667 L24.3560065,17.0666667 Z M43.2468116,17.0666667 L43.5929531,17.392 C45.2949042,19.0474667 46.6049167,21.1285333 47.5229904,23.6341333 C48.5028371,26.3072 48.9927604,29.1626667 48.9927604,32.2005333 C48.9927604,35.1658667 48.5241381,37.9456 47.5890235,40.5397333 C46.6528439,43.1328 45.3364412,45.264 43.6398154,46.9333333 L39.9408941,46.9333333 L39.9408941,46.56 L40.2881007,46.1866667 C41.8867418,44.4213333 43.1307211,42.3658667 44.0200385,40.0202667 C44.974324,37.5061333 45.4504016,34.9002667 45.4504016,32.2005333 C45.4504016,29.4293333 44.9476977,26.7381333 43.9422898,24.1269333 C42.9358168,21.5157333 41.471372,19.2778667 39.5478904,17.4133333 L39.5478904,17.0666667 L43.2468116,17.0666667 Z M28.0293666,23.088 L28.0293666,30.7338667 L35.8734653,30.7338667 L35.8734653,23.088 L39.5478904,23.088 L39.5478904,41.6842667 L35.8734653,41.6842667 L35.8734653,33.7717333 L28.0293666,33.7717333 L28.0293666,41.6842667 L24.3560065,41.6842667 L24.3560065,23.088 L28.0293666,23.088 Z" id="Fill-4" fill="#FFFFFF" opacity="0.9"></path>
            <path d="M137.330945,26.0890667 C138.742137,26.0890667 140.018068,26.4346667 141.161933,27.1258667 C142.304732,27.8170667 143.210025,28.8005333 143.875682,30.0741333 C144.541339,31.3477333 144.873635,32.824 144.873635,34.504 C144.873635,36.1818667 144.541339,37.6688 143.875682,38.9626667 C143.210025,40.2576 142.304732,41.2592 141.161933,41.9706667 C140.018068,42.6810667 138.742137,43.0373333 137.330945,43.0373333 C136.117852,43.0373333 135.049606,42.7909333 134.125142,42.296 C133.305053,41.8576 132.620226,41.3168 132.07279,40.6746667 L131.87469,40.4293333 L131.87469,50.5925333 L127.700756,50.5925333 L127.700756,26.3557333 L131.87469,26.3557333 L131.87469,28.7258667 L132.061074,28.4805333 C132.578689,27.8373333 133.257126,27.2922667 134.096386,26.8442667 C135.041086,26.3408 136.117852,26.0890667 137.330945,26.0890667 L137.330945,26.0890667 Z M157.544543,26.0890667 C158.955735,26.0890667 160.232731,26.4346667 161.375531,27.1258667 C162.51833,27.8170667 163.422558,28.8005333 164.088215,30.0741333 C164.753872,31.3477333 165.087233,32.824 165.087233,34.504 C165.087233,36.1818667 164.753872,37.6688 164.088215,38.9626667 C163.422558,40.2576 162.51833,41.2592 161.375531,41.9706667 C160.232731,42.6810667 158.955735,43.0373333 157.544543,43.0373333 C156.332516,43.0373333 155.26427,42.7909333 154.339806,42.296 C153.517586,41.8576 152.833824,41.3168 152.287453,40.6746667 L152.088288,40.4293333 L152.088288,50.5925333 L147.915419,50.5925333 L147.915419,26.3557333 L152.088288,26.3557333 L152.088288,28.7258667 L152.274672,28.4805333 C152.792287,27.8373333 153.469659,27.2922667 154.308919,26.8442667 C155.253619,26.3408 156.332516,26.0890667 157.544543,26.0890667 L157.544543,26.0890667 Z M178.972299,26.3557333 L183.235697,37.8224 L187.557673,26.3557333 L192,26.3557333 L181.774448,50.5338667 L177.332121,50.5338667 L180.909627,42.3557333 L174.291401,26.3557333 L178.972299,26.3557333 Z M109.152897,15.3925333 L109.152897,15.7776 L108.749243,16.1712 C106.760793,18.1648 105.230316,20.5221333 104.158875,23.2442667 C103.016075,26.1477333 102.444143,29.1408 102.444143,32.2224 C102.444143,35.2250667 102.986254,38.1242667 104.070475,40.9189333 C105.152567,43.7136 106.697955,46.1381333 108.705576,48.1925333 L108.705576,48.6074667 L104.501821,48.6074667 L104.165265,48.2736 C102.399411,46.4698667 101.014845,44.2106667 100.014762,41.496 C98.9518414,38.6128 98.4203811,35.5205333 98.4203811,32.2224 C98.4203811,28.8442667 98.9763376,25.6688 100.089316,22.696 C101.202294,19.7232 102.822236,17.2890667 104.949142,15.3925333 L109.152897,15.3925333 Z M166.552742,15.3925333 L166.922315,15.7328 C168.867098,17.5770667 170.364559,19.8981333 171.412569,22.696 C172.525547,25.6688 173.081504,28.8442667 173.081504,32.2224 C173.081504,35.5205333 172.548978,38.6128 171.486058,41.496 C170.423137,44.3802667 168.927806,46.7514667 166.998999,48.6074667 L162.795243,48.6074667 L162.795243,48.1925333 L163.166946,47.8032 C164.995638,45.8330667 166.416416,43.5386667 167.432474,40.9189333 C168.514566,38.1242667 169.056677,35.2250667 169.056677,32.2224 C169.056677,29.1408 168.48581,26.1477333 167.34301,23.2442667 C166.199146,20.3408 164.535536,17.8522667 162.347922,15.7776 L162.347922,15.3925333 L166.552742,15.3925333 Z M113.957341,26.0890667 C115.189605,26.0890667 116.267436,26.3354667 117.191901,26.8293333 C118.013055,27.2688 118.689362,27.8085333 119.220822,28.4506667 L119.412531,28.696 L119.412531,26.3557333 L123.616287,26.3557333 L123.616287,42.7706667 L119.412531,42.7706667 L119.412531,40.3706667 L119.226147,40.6224 C118.709598,41.2805333 118.031161,41.8330667 117.191901,42.2810667 C116.2472,42.7856 115.159784,43.0373333 113.926455,43.0373333 C112.536564,43.0373333 111.268088,42.6810667 110.126354,41.9706667 C108.983554,41.2592 108.078261,40.2576 107.412605,38.9626667 C106.746948,37.6688 106.414652,36.1818667 106.414652,34.504 C106.414652,32.8442667 106.746948,31.3733333 107.412605,30.0890667 C108.078261,28.8048 108.983554,27.8170667 110.126354,27.1258667 C111.268088,26.4346667 112.546149,26.0890667 113.957341,26.0890667 L113.957341,26.0890667 Z M82.2145689,22.0890667 L82.2145689,30.5925333 L91.1279786,30.5925333 L91.1279786,22.0890667 L95.3019125,22.0890667 L95.3019125,42.7706667 L91.1279786,42.7706667 L91.1279786,33.9706667 L82.2145689,33.9706667 L82.2145689,42.7706667 L78.040635,42.7706667 L78.040635,22.0890667 L82.2145689,22.0890667 Z M115.030913,29.7338667 C114.255556,29.7338667 113.539841,29.9205333 112.88377,30.296 C112.227699,30.6714667 111.696239,31.2197333 111.288324,31.9408 C110.881475,32.6618667 110.67805,33.5152 110.67805,34.504 C110.67805,35.4917333 110.881475,36.3557333 111.288324,37.096 C111.696239,37.8373333 112.233024,38.4048 112.898681,38.8005333 C113.564338,39.1952 114.275792,39.3925333 115.030913,39.3925333 C115.805204,39.3925333 116.531569,39.2005333 117.205746,38.8144 C117.882053,38.4293333 118.418839,37.8768 118.816103,37.1557333 C119.213367,36.4346667 119.412531,35.5706667 119.412531,34.5626667 C119.412531,33.5557333 119.213367,32.6906667 118.816103,31.9706667 C118.418839,31.2496 117.882053,30.696 117.205746,30.3109333 C116.531569,29.9258667 115.805204,29.7338667 115.030913,29.7338667 L115.030913,29.7338667 Z M136.227553,29.7338667 C135.472432,29.7338667 134.762043,29.9258667 134.096386,30.3109333 C133.430729,30.696 132.893944,31.2538667 132.486029,31.9856 C132.078115,32.7162667 131.87469,33.5749333 131.87469,34.5626667 C131.87469,35.5514667 132.078115,36.4101333 132.486029,37.1408 C132.893944,37.8714667 133.430729,38.4293333 134.096386,38.8144 C134.762043,39.2005333 135.472432,39.3925333 136.227553,39.3925333 C137.002909,39.3925333 137.722884,39.1952 138.38854,38.8005333 C139.055262,38.4048 139.592048,37.8416 139.998897,37.1109333 C140.406812,36.3802667 140.610236,35.5109333 140.610236,34.504 C140.610236,33.5152 140.406812,32.6618667 139.998897,31.9408 C139.592048,31.2197333 139.055262,30.6714667 138.38854,30.296 C137.722884,29.9205333 137.002909,29.7338667 136.227553,29.7338667 L136.227553,29.7338667 Z M156.441151,29.7338667 C155.68603,29.7338667 154.974576,29.9258667 154.308919,30.3109333 C153.643262,30.696 153.107542,31.2538667 152.699627,31.9856 C152.292778,32.7162667 152.088288,33.5749333 152.088288,34.5626667 C152.088288,35.5514667 152.292778,36.4101333 152.699627,37.1408 C153.107542,37.8714667 153.643262,38.4293333 154.308919,38.8144 C154.974576,39.2005333 155.68603,39.3925333 156.441151,39.3925333 C157.216508,39.3925333 157.937547,39.1952 158.603204,38.8005333 C159.26886,38.4048 159.805646,37.8416 160.212495,37.1109333 C160.62041,36.3802667 160.8249,35.5109333 160.8249,34.504 C160.8249,33.5152 160.62041,32.6618667 160.212495,31.9408 C159.805646,31.2197333 159.26886,30.6714667 158.603204,30.296 C157.937547,29.9205333 157.216508,29.7338667 156.441151,29.7338667 L156.441151,29.7338667 Z" id="Fill-6" fill="#222222"></path>
        </g>
    </g>
</svg>